# xmcd CD database file
# Copyright (C) 1993-1996 Ti Kan
#
# Track frame offsets:
#  150
#  14215
#  32458
#  50145
#  69680
#  94030
#  112320
#  125240
#  141003
#  156553
#  171238
#  193920
#  214968
#
# Disc length: 3036 seconds
#
# Revision: 3
# Processed by: cddbd v1.5.2PL0 Copyright (c) Steve Scherf et al.
# Submitted via: Advanced CD Ripper Pro 2.0
#
DISCID=d60bda0d
DTITLE=Various / Holiday Sounds of the Season
DYEAR=2001
DGENRE=Vocal
TTITLE0=Joe / This Christmas
TTITLE1=Dido / Christmas Day
TTITLE2=B B King / Merry Christmas Baby
TTITLE3=Diana Krall / Have Yourself A Merry Little Christmas
TTITLE4=Santana / Posada (Pilgrimage To Bethlehem)
TTITLE5=R Kelly / World Christmas
TTITLE6=Mary J. Blige / Someday At Christmas
TTITLE7=NSYNC / The First Noel
TTITLE8=Toni Braxton / The Christmas Song
TTITLE9=Eva Cassidy / It's Not The Presents Under The Tree
TTITLE10=Donnie McClurkin / Hark! The Herald Angels Sing
TTITLE11=Kelly Price / Mary's Song
TTITLE12=Angie Aparo / Silent Night
EXTD=
EXTT0=
EXTT1=
EXTT2=
EXTT3=
EXTT4=
EXTT5=
EXTT6=
EXTT7=
EXTT8=
EXTT9=
EXTT10=
EXTT11=
EXTT12=
PLAYORDER=
.
